<svg id="icon_vue_black.svg" xmlns="http://www.w3.org/2000/svg" width="52" height="42" viewBox="0 0 52 42">
  <defs>
    <style>
      .cls-1, .cls-2 {
        fill: #333;
      }

      .cls-1 {
        fill-opacity: 0;
      }

      .cls-2 {
        fill-rule: evenodd;
      }
    </style>
  </defs>
  <rect id="ガイド" class="cls-1" width="52" height="42"/>
  <path id="icon_vue" class="cls-2" d="M264.8,213h-5.686l-3.618,6.125L251.875,213H239.986l15.507,26.25L271,213h-6.2Zm-23.743.613h5.5l8.941,15.137,8.941-15.137h5.5l-14.439,24.444Zm11.664,31.17-2.879,7.054h-0.832l-2.879-7.054h0.963l2.361,5.865,2.352-5.865h0.914Zm5.688,7.054h-0.852V251.2a3.118,3.118,0,0,1-1.9.782,1.659,1.659,0,0,1-1.311-.513,2.137,2.137,0,0,1-.455-1.467v-3.455h0.851v2.973a2.237,2.237,0,0,0,.283,1.353,1.152,1.152,0,0,0,.922.332,2.659,2.659,0,0,0,1.611-.679v-3.979h0.852v5.29Zm4.41,0.122a2.955,2.955,0,0,1-2.117-.715,2.645,2.645,0,0,1-.752-2.019,2.886,2.886,0,0,1,.72-2.062,2.505,2.505,0,0,1,1.912-.766,2.212,2.212,0,0,1,1.681.628,2.489,2.489,0,0,1,.6,1.789v0.453h-4.04a1.938,1.938,0,0,0,.535,1.467,2.046,2.046,0,0,0,1.478.513,3.339,3.339,0,0,0,1.878-.632h0.038v0.9A5.63,5.63,0,0,1,262.816,251.955Zm-2-3.315h3.209a1.381,1.381,0,0,0-1.5-1.577,1.681,1.681,0,0,0-1.19.421A1.727,1.727,0,0,0,260.817,248.64Z" transform="translate(-229 -212)"/>
</svg>
