<?xml version="1.0" encoding="UTF-8" standalone="no"?>
<svg
   id="icon_vue_blue.svg"
   width="52"
   height="42"
   viewBox="0 0 52 42"
   version="1.1"
   sodipodi:docname="icon_vue_blue.svg"
   inkscape:version="1.1.1 (3bf5ae0d25, 2021-09-20)"
   xmlns:inkscape="http://www.inkscape.org/namespaces/inkscape"
   xmlns:sodipodi="http://sodipodi.sourceforge.net/DTD/sodipodi-0.dtd"
   xmlns="http://www.w3.org/2000/svg"
   xmlns:svg="http://www.w3.org/2000/svg">
  <sodipodi:namedview
     id="namedview927"
     pagecolor="#ffffff"
     bordercolor="#666666"
     borderopacity="1.0"
     inkscape:pageshadow="2"
     inkscape:pageopacity="0.0"
     inkscape:pagecheckerboard="0"
     showgrid="false"
     inkscape:zoom="10.078926"
     inkscape:cx="38.446558"
     inkscape:cy="22.423025"
     inkscape:window-width="1364"
     inkscape:window-height="747"
     inkscape:window-x="0"
     inkscape:window-y="19"
     inkscape:window-maximized="1"
     inkscape:current-layer="g27600" />
  <defs
     id="defs922">
    <style
       id="style920">
      .cls-1 {
        fill: #333;
        fill-opacity: 0;
      }

      .cls-2 {
        fill: #369;
        fill-rule: evenodd;
      }
    </style>
  </defs>
  <rect
     id="ガイド"
     class="cls-1"
     width="52"
     height="42" />
  <g
     id="g27600"
     transform="translate(-6.3173995,-0.10591779)"
     style="fill:#333333;fill-opacity:1">
    <g
       id="g32318"
       style="fill:#336699;fill-opacity:1">
      <path
         id="path6448"
         class="cls-2"
         d="M 10.986328,1 26.492188,27.25 42,1 h -6.199219 -5.6875 L 26.496094,7.125 22.875,1 Z m 1.070313,0.6132812 h 5.5 L 26.498047,16.75 35.439453,1.6132812 h 5.5 L 26.5,26.056641 Z"
         style="fill:#336699;fill-opacity:1"
         transform="translate(6.3173995,0.10591779)" />
      <path
         id="text4333"
         style="font-size:9.67844px;line-height:1.25;font-family:sans-serif;letter-spacing:1.01px;fill:#336699;fill-opacity:1;stroke-width:1.03698"
         d="m 19.360368,34.556191 v 3.203125 c 0,0.727774 0.157604,1.282092 0.472656,1.660157 0.315054,0.378064 0.776714,0.566406 1.384766,0.566406 0.368612,0 0.691503,-0.07805 0.96875,-0.232422 0.280397,-0.157527 0.527195,-0.395443 0.738281,-0.716797 v 0.8125 h 0.869141 v -5.292969 h -0.869141 v 3 c 0,0.516688 -0.138013,0.925309 -0.412109,1.22461 -0.270946,0.2993 -0.639946,0.449218 -1.109375,0.449218 -0.390666,0 -0.683573,-0.124154 -0.878907,-0.373046 -0.195333,-0.252043 -0.292968,-0.629925 -0.292968,-1.13086 v -3.169922 z"
         transform="translate(6.3173995,0.10591779)" />
      <path
         id="path27593"
         style="font-size:9.67844px;line-height:1.25;font-family:sans-serif;letter-spacing:1.01px;fill:#336699;fill-opacity:1;stroke-width:1.03698"
         d="m 11.641619,32.792519 2.693359,7.056641 h 1.082032 l 2.689453,-7.056641 h -0.994141 l -2.238281,5.941407 -2.236328,-5.941407 z"
         transform="translate(6.3173995,0.10591779)" />
      <path
         id="path27595"
         style="font-size:9.67844px;line-height:1.25;font-family:sans-serif;letter-spacing:1.01px;fill:#336699;fill-opacity:1;stroke-width:1.03698"
         d="m 34.357422,34.439453 c -0.793935,0 -1.425102,0.253286 -1.894531,0.763672 -0.466279,0.507236 -0.699219,1.19415 -0.699219,2.060547 0,0.838042 0.244845,1.50461 0.736328,1.996094 0.494634,0.491483 1.163469,0.736328 2.007812,0.736328 0.337108,0 0.670392,-0.0342 0.998047,-0.103516 0.327656,-0.06931 0.647082,-0.170412 0.958985,-0.302734 v -0.822266 c -0.308753,0.163828 -0.620494,0.287227 -0.935547,0.369141 -0.311903,0.08191 -0.634794,0.123047 -0.96875,0.123047 -0.576548,0 -1.027058,-0.156848 -1.351563,-0.46875 -0.321354,-0.315054 -0.501256,-0.772493 -0.539062,-1.371094 h 3.998047 v -0.423828 c 0,-0.787634 -0.207177,-1.41036 -0.623047,-1.867188 -0.41272,-0.459978 -0.975479,-0.689453 -1.6875,-0.689453 z m 0.0098,0.736328 c 0.428472,0 0.770953,0.142233 1.029296,0.425781 0.261495,0.283549 0.396043,0.662942 0.402344,1.138672 l -3.099609,0.0039 c 0.04411,-0.497785 0.210151,-0.884107 0.5,-1.158203 0.292999,-0.274097 0.682786,-0.410157 1.167969,-0.410157 z" />
      <text
         xml:space="preserve"
         style="font-size:9.98874px;line-height:1.25;font-family:sans-serif;stroke-width:1.07022;fill:#336699;fill-opacity:1"
         x="42.275803"
         y="40.091434"
         id="text7866"><tspan
           sodipodi:role="line"
           id="tspan7864"
           x="42.275803"
           y="40.091434"
           style="stroke-width:1.07022;fill:#336699;fill-opacity:1">2</tspan></text>
    </g>
  </g>
  <text
     xml:space="preserve"
     style="font-size:9.33333px;line-height:1.25;font-family:sans-serif"
     x="37.918926"
     y="36.374546"
     id="text2810"><tspan
       sodipodi:role="line"
       id="tspan2808"
       x="37.918926"
       y="36.374546" /></text>
</svg>
