<svg xmlns="http://www.w3.org/2000/svg" xmlns:xlink="http://www.w3.org/1999/xlink" preserveAspectRatio="xMidYMid" width="52" height="42" viewBox="0 0 52 42">
  <defs>
    <style>
      .cls-1 {
        fill: #333;
        fill-opacity: 0;
      }

      .cls-2 {
        fill: #242424;
        fill-rule: evenodd;
      }
    </style>
  </defs>
  <g>
    <rect width="52" height="42" class="cls-1"/>
    <path d="M50.187,39.004 C50.266,39.165 50.388,39.284 50.550,39.359 C50.712,39.434 50.921,39.472 51.174,39.472 C51.416,39.472 51.680,39.417 51.969,39.306 L51.999,39.306 L51.999,40.044 C51.612,40.133 51.251,40.177 50.916,40.177 C49.777,40.177 49.209,39.586 49.209,38.403 L49.209,35.529 L48.579,35.529 L48.579,34.866 L49.214,34.866 L49.214,33.368 L50.067,33.368 L50.067,34.866 L51.999,34.866 L51.999,35.529 L50.067,35.529 L50.067,37.942 C50.067,38.488 50.107,38.842 50.187,39.004 ZM45.186,40.177 C44.662,40.177 44.152,40.044 43.654,39.776 L43.654,41.999 L42.796,41.999 L42.796,34.866 L43.654,34.866 L43.654,35.442 C44.282,34.960 44.892,34.718 45.484,34.718 C46.135,34.718 46.651,34.958 47.035,35.435 C47.419,35.914 47.611,36.570 47.611,37.407 C47.611,38.227 47.379,38.894 46.913,39.407 C46.448,39.921 45.872,40.177 45.186,40.177 ZM45.234,35.484 C44.708,35.484 44.181,35.690 43.654,36.102 L43.654,39.144 C44.142,39.351 44.594,39.454 45.010,39.454 C45.547,39.454 45.966,39.278 46.269,38.926 C46.572,38.573 46.723,38.076 46.723,37.434 C46.723,36.134 46.226,35.484 45.234,35.484 ZM39.910,32.981 L40.881,32.981 L40.881,33.824 L39.910,33.824 L39.910,32.981 ZM12.617,0.987 L39.384,0.987 L39.384,27.548 L12.617,27.548 L12.617,0.987 ZM13.362,26.808 L38.638,26.808 L38.638,1.727 L13.362,1.727 L13.362,26.808 ZM36.096,24.014 C35.638,24.467 35.085,24.762 34.466,24.923 C32.868,25.337 31.341,25.175 29.929,24.293 C29.352,23.932 28.930,23.409 28.581,22.831 C28.556,22.789 28.538,22.743 28.517,22.698 C28.512,22.688 28.510,22.675 28.503,22.649 C29.161,22.272 29.813,21.898 30.470,21.522 C30.572,21.662 30.666,21.795 30.765,21.925 C31.155,22.440 31.649,22.809 32.295,22.931 C32.813,23.028 33.331,23.005 33.825,22.798 C34.396,22.557 34.650,22.040 34.498,21.445 C34.427,21.168 34.238,20.976 34.014,20.815 C33.630,20.539 33.193,20.365 32.762,20.181 C32.142,19.916 31.521,19.654 30.939,19.307 C29.681,18.557 29.116,17.439 29.231,16.012 C29.341,14.643 30.120,13.742 31.413,13.282 C32.052,13.054 32.717,13.022 33.388,13.093 C33.961,13.154 34.505,13.303 34.993,13.616 C35.531,13.961 35.921,14.444 36.250,14.980 C36.254,14.986 36.253,14.995 36.255,15.014 C35.632,15.410 35.006,15.809 34.366,16.217 C34.338,16.169 34.315,16.128 34.291,16.087 C33.992,15.576 33.571,15.243 32.960,15.184 C32.692,15.158 32.434,15.199 32.190,15.315 C31.748,15.525 31.558,15.955 31.650,16.477 C31.707,16.797 31.883,17.031 32.148,17.189 C32.450,17.369 32.768,17.527 33.090,17.672 C33.768,17.977 34.469,18.236 35.106,18.627 C35.637,18.952 36.123,19.328 36.468,19.854 C36.925,20.551 37.032,21.329 36.963,22.136 C36.901,22.861 36.620,23.496 36.096,24.014 ZM24.828,24.966 C23.634,25.297 22.451,25.207 21.343,24.598 C20.727,24.259 20.135,23.569 19.863,22.930 C20.522,22.529 21.175,22.133 21.839,21.729 C21.882,21.797 21.919,21.854 21.954,21.913 C22.130,22.210 22.310,22.507 22.601,22.709 C23.095,23.051 23.628,23.070 24.157,22.812 C24.528,22.631 24.665,22.279 24.689,21.887 C24.710,21.528 24.723,21.168 24.723,20.809 C24.726,18.331 24.724,15.852 24.724,13.374 C24.724,13.212 24.725,13.211 24.886,13.211 C25.595,13.211 26.304,13.211 27.012,13.211 C27.061,13.211 27.109,13.216 27.169,13.220 C27.169,13.288 27.169,13.344 27.169,13.401 C27.171,15.805 27.176,18.210 27.173,20.615 C27.172,21.149 27.177,21.689 27.113,22.218 C26.945,23.609 26.208,24.584 24.828,24.966 ZM15.247,34.866 L16.145,34.866 L13.798,40.076 L13.129,40.076 L10.797,34.866 L11.730,34.866 L13.500,38.933 L15.247,34.866 ZM8.708,39.496 C8.249,39.808 7.872,40.008 7.575,40.092 C7.280,40.177 6.978,40.219 6.673,40.219 C6.182,40.219 5.773,40.065 5.449,39.758 C5.123,39.451 4.961,39.060 4.961,38.587 C4.961,37.981 5.202,37.526 5.685,37.219 C6.169,36.914 7.176,36.732 8.708,36.673 L8.708,36.517 C8.708,36.154 8.593,35.886 8.366,35.712 C8.139,35.538 7.739,35.452 7.166,35.452 C6.662,35.452 6.101,35.574 5.483,35.821 L5.444,35.821 L5.444,34.976 C6.052,34.820 6.637,34.741 7.200,34.741 C8.016,34.741 8.614,34.885 8.993,35.172 C9.372,35.461 9.561,35.906 9.561,36.512 L9.561,40.076 L8.708,40.076 L8.708,39.496 ZM8.708,37.323 C7.494,37.376 6.714,37.503 6.368,37.704 C6.022,37.906 5.849,38.182 5.849,38.536 C5.849,39.160 6.249,39.472 7.049,39.472 C7.592,39.472 8.144,39.260 8.708,38.835 L8.708,37.323 ZM1.271,40.173 C0.876,40.173 0.454,40.128 0.002,40.039 L0.002,39.241 L0.051,39.241 C0.464,39.377 0.827,39.444 1.139,39.444 C1.594,39.444 1.938,39.359 2.171,39.189 C2.403,39.018 2.519,38.603 2.519,37.946 L2.519,33.801 L0.914,33.801 L0.914,33.128 L3.427,33.128 L3.427,38.296 C3.427,38.883 3.235,39.343 2.850,39.675 C2.467,40.007 1.940,40.173 1.271,40.173 ZM20.757,36.673 L20.757,36.517 C20.757,36.154 20.644,35.886 20.416,35.712 C20.188,35.538 19.788,35.452 19.216,35.452 C18.712,35.452 18.150,35.574 17.532,35.821 L17.493,35.821 L17.493,34.976 C18.101,34.820 18.687,34.741 19.250,34.741 C20.067,34.741 20.663,34.885 21.043,35.172 C21.421,35.461 21.611,35.906 21.611,36.512 L21.611,40.076 L20.757,40.076 L20.757,39.496 C20.298,39.808 19.922,40.008 19.626,40.092 C19.329,40.177 19.029,40.219 18.723,40.219 C18.232,40.219 17.824,40.065 17.498,39.758 C17.173,39.451 17.011,39.060 17.011,38.587 C17.011,37.981 17.252,37.526 17.735,37.219 C18.218,36.914 19.225,36.732 20.757,36.673 ZM19.098,39.472 C19.642,39.472 20.195,39.260 20.757,38.835 L20.757,37.323 C19.544,37.376 18.765,37.503 18.418,37.704 C18.071,37.906 17.898,38.182 17.898,38.536 C17.898,39.160 18.298,39.472 19.098,39.472 ZM25.862,39.476 C26.447,39.476 26.907,39.364 27.241,39.137 C27.573,38.912 27.741,38.611 27.741,38.237 C27.741,37.947 27.670,37.721 27.528,37.556 C27.386,37.392 27.140,37.263 26.789,37.172 L25.149,36.857 C24.542,36.738 24.080,36.520 23.767,36.205 C23.453,35.891 23.296,35.481 23.296,34.976 C23.296,34.405 23.540,33.933 24.027,33.561 C24.515,33.189 25.151,33.004 25.935,33.004 C26.755,33.004 27.574,33.174 28.394,33.515 L28.394,34.525 L28.326,34.525 C27.650,33.993 26.852,33.727 25.935,33.727 C25.428,33.727 25.019,33.833 24.708,34.045 C24.398,34.258 24.243,34.536 24.243,34.880 C24.243,35.455 24.597,35.825 25.306,35.992 C25.716,36.061 26.172,36.150 26.674,36.257 C27.177,36.362 27.536,36.473 27.752,36.588 C27.969,36.703 28.145,36.835 28.280,36.983 C28.414,37.130 28.515,37.297 28.582,37.484 C28.648,37.673 28.682,37.879 28.682,38.108 C28.682,38.709 28.423,39.209 27.906,39.606 C27.389,40.002 26.705,40.200 25.853,40.200 C25.026,40.200 24.159,40.007 23.252,39.620 L23.252,38.573 L23.315,38.573 C24.064,39.175 24.913,39.476 25.862,39.476 ZM32.450,34.737 C32.994,34.737 33.568,34.880 34.173,35.165 L34.173,36.069 L34.134,36.069 C33.526,35.648 32.958,35.438 32.431,35.438 C31.869,35.438 31.431,35.615 31.119,35.968 C30.806,36.321 30.651,36.825 30.651,37.480 C30.651,38.135 30.806,38.635 31.116,38.979 C31.427,39.323 31.866,39.496 32.431,39.496 C32.975,39.496 33.542,39.288 34.134,38.872 L34.173,38.872 L34.173,39.758 C33.513,40.050 32.937,40.196 32.446,40.196 C31.597,40.196 30.937,39.960 30.468,39.491 C29.997,39.020 29.762,38.350 29.762,37.480 C29.762,36.629 30.005,35.959 30.489,35.470 C30.974,34.981 31.628,34.737 32.450,34.737 ZM36.390,35.668 C37.079,35.133 37.715,34.866 38.298,34.866 C38.503,34.866 38.709,34.881 38.917,34.912 L38.917,35.761 L38.883,35.761 C38.613,35.699 38.340,35.668 38.063,35.668 C37.511,35.668 36.953,35.890 36.390,36.332 L36.390,40.076 L35.532,40.076 L35.532,34.866 L36.390,34.866 L36.390,35.668 ZM40.827,40.076 L39.969,40.076 L39.969,34.866 L40.827,34.866 L40.827,40.076 Z" class="cls-2"/>
  </g>
</svg>
