<svg xmlns="http://www.w3.org/2000/svg" xmlns:xlink="http://www.w3.org/1999/xlink" preserveAspectRatio="xMidYMid" width="52" height="42" viewBox="0 0 52 42">
  <defs>
    <style>
      .cls-1 {
        fill: #333;
        fill-opacity: 0;
      }

      .cls-2 {
        fill: #242424;
        fill-rule: evenodd;
      }
    </style>
  </defs>
  <g>
    <rect width="52" height="42" class="cls-1"/>
    <path d="M48.002,39.997 L43.114,39.997 L43.114,39.089 C43.631,38.660 44.213,38.161 44.857,37.593 C45.502,37.025 45.982,36.525 46.295,36.093 C46.609,35.661 46.766,35.229 46.766,34.797 C46.766,34.416 46.633,34.117 46.370,33.903 C46.106,33.688 45.749,33.581 45.296,33.581 C44.634,33.581 43.982,33.783 43.342,34.187 L43.293,34.187 L43.293,33.278 C43.947,32.979 44.622,32.830 45.321,32.830 C46.057,32.830 46.638,33.003 47.061,33.345 C47.484,33.689 47.696,34.158 47.696,34.751 C47.696,35.067 47.642,35.370 47.534,35.660 C47.426,35.948 47.257,36.229 47.027,36.503 C46.798,36.776 46.523,37.066 46.203,37.374 C45.883,37.681 45.147,38.306 43.997,39.247 L48.002,39.247 L48.002,39.997 ZM41.347,35.543 C40.797,35.543 40.243,35.767 39.684,36.214 L39.684,39.997 L38.831,39.997 L38.831,34.732 L39.684,34.732 L39.684,35.543 C40.369,35.002 41.001,34.732 41.580,34.732 C41.784,34.732 41.989,34.747 42.195,34.779 L42.195,35.636 L42.162,35.636 C41.894,35.574 41.622,35.543 41.347,35.543 ZM25.471,27.097 L15.213,21.408 L13.291,5.322 L25.458,1.001 L37.703,5.245 L35.781,21.331 L25.471,27.097 ZM25.457,3.844 L17.934,20.732 L20.739,20.679 L22.248,16.872 L28.990,16.872 L30.641,20.732 L33.242,20.732 L25.457,3.844 ZM25.477,9.259 L28.020,14.619 L23.237,14.619 L25.477,9.259 ZM14.825,35.094 C15.132,35.433 15.285,35.924 15.285,36.568 L15.285,39.997 L14.432,39.997 L14.432,37.048 C14.432,36.365 14.339,35.912 14.151,35.690 C13.963,35.467 13.655,35.356 13.225,35.356 C12.717,35.356 12.179,35.583 11.610,36.036 L11.610,39.997 L10.757,39.997 L10.757,34.732 L11.610,34.732 L11.610,35.365 C12.254,34.843 12.889,34.582 13.516,34.582 C14.081,34.582 14.518,34.753 14.825,35.094 ZM7.831,37.994 L4.660,37.994 L3.909,39.997 L2.993,39.997 L5.698,32.976 L6.847,32.976 L9.548,39.997 L8.583,39.997 L7.831,37.994 ZM6.246,33.809 L4.937,37.271 L7.560,37.271 L6.246,33.809 ZM18.880,39.918 C18.231,39.918 17.722,39.689 17.353,39.228 C16.985,38.769 16.800,38.132 16.800,37.318 C16.800,36.504 17.028,35.845 17.481,35.340 C17.936,34.835 18.499,34.582 19.172,34.582 C19.701,34.582 20.217,34.721 20.718,34.997 L20.781,34.732 L21.571,34.732 L21.571,39.401 C21.571,41.129 20.720,41.992 19.016,41.992 C18.457,41.992 17.901,41.919 17.348,41.773 L17.348,40.925 L17.387,40.925 C17.952,41.148 18.512,41.260 19.065,41.260 C19.624,41.260 20.039,41.139 20.311,40.899 C20.582,40.659 20.718,40.269 20.718,39.732 L20.718,39.210 C20.133,39.683 19.521,39.918 18.880,39.918 ZM20.718,35.636 C20.237,35.422 19.787,35.314 19.370,35.314 C18.837,35.314 18.422,35.484 18.127,35.822 C17.830,36.161 17.683,36.645 17.683,37.276 C17.683,38.531 18.168,39.159 19.137,39.159 C19.651,39.159 20.178,38.956 20.718,38.549 L20.718,35.636 ZM24.333,37.691 C24.333,38.368 24.427,38.817 24.616,39.038 C24.805,39.258 25.113,39.369 25.540,39.369 C26.044,39.369 26.582,39.143 27.154,38.693 L27.154,34.732 L28.008,34.732 L28.008,39.997 L27.154,39.997 L27.154,39.364 C26.492,39.883 25.857,40.142 25.249,40.142 C24.677,40.142 24.239,39.972 23.935,39.632 C23.631,39.291 23.479,38.805 23.479,38.171 L23.479,34.732 L24.333,34.732 L24.333,37.691 ZM30.817,39.997 L29.963,39.997 L29.963,32.664 L30.817,32.664 L30.817,39.997 ZM33.076,37.110 C33.556,36.801 34.557,36.618 36.080,36.558 L36.080,36.400 C36.080,36.033 35.966,35.763 35.740,35.587 C35.514,35.411 35.116,35.324 34.548,35.324 C34.046,35.324 33.489,35.448 32.875,35.697 L32.836,35.697 L32.836,34.843 C33.440,34.685 34.022,34.606 34.581,34.606 C35.393,34.606 35.986,34.751 36.363,35.042 C36.740,35.333 36.928,35.783 36.928,36.395 L36.928,39.997 L36.080,39.997 L36.080,39.411 C35.624,39.727 35.249,39.929 34.954,40.014 C34.660,40.100 34.361,40.142 34.058,40.142 C33.570,40.142 33.164,39.987 32.841,39.676 C32.517,39.366 32.356,38.970 32.356,38.493 C32.356,37.881 32.596,37.420 33.076,37.110 ZM34.431,39.387 C34.971,39.387 35.520,39.172 36.080,38.744 L36.080,37.215 C34.874,37.268 34.099,37.397 33.755,37.600 C33.410,37.804 33.238,38.084 33.238,38.442 C33.238,39.071 33.636,39.387 34.431,39.387 Z" class="cls-2"/>
  </g>
</svg>
