<svg xmlns="http://www.w3.org/2000/svg" xmlns:xlink="http://www.w3.org/1999/xlink" preserveAspectRatio="xMidYMid" width="52" height="42" viewBox="0 0 52 42">
  <defs>
    <style>
      .cls-1 {
        fill: #333;
        fill-opacity: 0;
      }

      .cls-2 {
        fill: #002424;
        fill-rule: evenodd;
      }
    </style>
  </defs>
  <g>
    <rect width="52" height="42" class="cls-1"/>
    <path d="M44.069,40.012 L44.069,39.371 L45.605,39.371 L45.605,34.563 L44.069,34.563 L44.069,33.997 C44.670,33.994 45.098,33.913 45.356,33.753 C45.614,33.594 45.759,33.341 45.792,32.994 L46.486,32.994 L46.486,39.371 L47.993,39.371 L47.993,40.012 L44.069,40.012 ZM41.700,35.575 C41.145,35.575 40.586,35.798 40.021,36.243 L40.021,40.012 L39.161,40.012 L39.161,34.767 L40.021,34.767 L40.021,35.575 C40.713,35.036 41.351,34.767 41.935,34.767 C42.140,34.767 42.347,34.782 42.555,34.814 L42.555,35.668 L42.522,35.668 C42.251,35.606 41.977,35.575 41.700,35.575 ZM36.860,21.893 L36.837,22.082 L36.670,22.174 L25.650,28.259 L25.470,28.358 L25.289,28.259 L14.326,22.256 L14.158,22.164 L14.135,21.974 L12.080,4.999 L12.044,4.702 L12.327,4.603 L25.331,0.044 L25.454,0.000 L25.577,0.043 L38.665,4.522 L38.951,4.619 L38.915,4.919 L36.860,21.893 ZM25.455,0.395 L12.451,4.955 L14.506,21.929 L25.469,27.933 L36.489,21.848 L38.543,4.874 L25.455,0.395 ZM25.425,26.498 L15.671,21.109 L13.910,5.927 L25.425,1.839 L37.246,5.855 L35.332,21.036 L25.425,26.498 ZM25.425,2.734 L17.360,20.609 L20.341,20.609 L21.995,16.482 L29.201,16.482 L30.989,20.609 L33.774,20.609 L25.425,2.734 ZM25.447,8.448 L28.165,14.104 L23.053,14.104 L25.447,8.448 ZM14.940,35.127 C15.250,35.465 15.405,35.955 15.405,36.596 L15.405,40.012 L14.544,40.012 L14.544,37.074 C14.544,36.394 14.449,35.942 14.260,35.721 C14.071,35.500 13.759,35.389 13.326,35.389 C12.814,35.389 12.271,35.615 11.696,36.066 L11.696,40.012 L10.836,40.012 L10.836,34.767 L11.696,34.767 L11.696,35.398 C12.346,34.878 12.986,34.618 13.619,34.618 C14.190,34.618 14.630,34.788 14.940,35.127 ZM7.884,38.017 L4.684,38.017 L3.926,40.012 L3.002,40.012 L5.731,33.018 L6.891,33.018 L9.616,40.012 L8.642,40.012 L7.884,38.017 ZM6.284,33.848 L4.963,37.297 L7.610,37.297 L6.284,33.848 ZM19.032,39.933 C18.376,39.933 17.863,39.705 17.491,39.246 C17.119,38.789 16.933,38.154 16.933,37.344 C16.933,36.533 17.162,35.876 17.620,35.373 C18.078,34.870 18.647,34.618 19.326,34.618 C19.860,34.618 20.380,34.756 20.886,35.032 L20.949,34.767 L21.747,34.767 L21.747,39.418 C21.747,41.139 20.887,41.999 19.169,41.999 C18.605,41.999 18.043,41.927 17.486,41.781 L17.486,40.936 L17.525,40.936 C18.096,41.159 18.660,41.270 19.218,41.270 C19.782,41.270 20.201,41.150 20.475,40.911 C20.749,40.671 20.886,40.283 20.886,39.748 L20.886,39.228 C20.296,39.699 19.678,39.933 19.032,39.933 ZM20.886,35.668 C20.400,35.455 19.946,35.347 19.526,35.347 C18.987,35.347 18.569,35.516 18.271,35.853 C17.972,36.191 17.823,36.673 17.823,37.302 C17.823,38.551 18.313,39.177 19.291,39.177 C19.810,39.177 20.341,38.975 20.886,38.569 L20.886,35.668 ZM24.533,37.715 C24.533,38.389 24.628,38.837 24.819,39.057 C25.009,39.276 25.320,39.386 25.750,39.386 C26.260,39.386 26.803,39.161 27.380,38.713 L27.380,34.767 L28.241,34.767 L28.241,40.012 L27.380,40.012 L27.380,39.381 C26.711,39.898 26.070,40.156 25.457,40.156 C24.880,40.156 24.438,39.987 24.132,39.648 C23.825,39.309 23.672,38.824 23.672,38.193 L23.672,34.767 L24.533,34.767 L24.533,37.715 ZM31.075,40.012 L30.214,40.012 L30.214,32.707 L31.075,32.707 L31.075,40.012 ZM33.354,37.137 C33.839,36.829 34.849,36.646 36.385,36.586 L36.385,36.429 C36.385,36.063 36.271,35.794 36.042,35.619 C35.814,35.444 35.413,35.357 34.839,35.357 C34.334,35.357 33.771,35.480 33.151,35.728 L33.112,35.728 L33.112,34.878 C33.722,34.721 34.309,34.642 34.873,34.642 C35.692,34.642 36.291,34.786 36.671,35.076 C37.051,35.366 37.241,35.814 37.241,36.424 L37.241,40.012 L36.385,40.012 L36.385,39.428 C35.925,39.743 35.547,39.944 35.250,40.029 C34.953,40.114 34.651,40.156 34.345,40.156 C33.852,40.156 33.443,40.002 33.117,39.692 C32.791,39.383 32.628,38.989 32.628,38.513 C32.628,37.904 32.870,37.445 33.354,37.137 ZM34.721,39.405 C35.266,39.405 35.820,39.191 36.385,38.764 L36.385,37.241 C35.168,37.294 34.386,37.422 34.039,37.624 C33.692,37.827 33.518,38.106 33.518,38.463 C33.518,39.090 33.919,39.405 34.721,39.405 Z" class="cls-2"/>
  </g>
</svg>
