<svg xmlns="http://www.w3.org/2000/svg" xmlns:xlink="http://www.w3.org/1999/xlink" preserveAspectRatio="xMidYMid" width="52" height="42" viewBox="0 0 52 42">
  <defs>
    <style>
      .cls-1 {
        fill: #333;
        fill-opacity: 0;
      }

      .cls-2 {
        fill: #369;
        fill-rule: evenodd;
      }
    </style>
  </defs>
  <g>
    <rect width="52" height="42" class="cls-1"/>
    <path d="M35.510,18.719 C35.336,18.777 35.149,18.829 34.966,18.883 C35.032,19.150 35.095,19.414 35.145,19.670 C35.817,23.087 35.278,25.768 33.740,26.665 C33.354,26.890 32.897,27.004 32.384,27.004 C30.957,27.004 29.163,26.130 27.332,24.543 C27.070,24.316 26.808,24.075 26.545,23.820 C26.344,24.016 26.142,24.208 25.942,24.384 C24.059,26.042 22.116,26.993 20.610,26.993 C20.082,26.993 19.615,26.878 19.225,26.652 C17.741,25.789 17.227,23.303 17.850,19.999 C17.914,19.657 17.991,19.308 18.078,18.953 C17.809,18.875 17.544,18.795 17.293,18.709 C14.021,17.581 11.988,15.769 11.988,13.978 C11.988,12.253 13.869,10.562 17.021,9.455 C17.365,9.334 17.726,9.221 18.096,9.115 C18.015,8.787 17.942,8.463 17.880,8.146 C17.224,4.769 17.719,2.235 19.204,1.370 C19.591,1.144 20.050,1.029 20.568,1.029 C22.083,1.029 24.072,2.033 26.027,3.781 C26.185,3.923 26.345,4.079 26.504,4.233 C26.746,3.998 26.988,3.772 27.230,3.561 C29.113,1.910 30.946,1.001 32.394,1.001 C32.896,1.001 33.342,1.112 33.719,1.331 C35.261,2.227 35.772,4.971 35.052,8.491 C35.010,8.699 34.955,8.917 34.902,9.132 C35.225,9.226 35.539,9.324 35.842,9.429 C39.072,10.549 41.001,12.250 41.001,13.978 C41.001,15.772 38.897,17.589 35.510,18.719 ZM28.141,23.597 C29.723,24.969 31.270,25.756 32.384,25.756 C32.677,25.756 32.924,25.698 33.119,25.585 C33.951,25.100 34.559,23.118 33.929,19.912 C33.884,19.682 33.826,19.442 33.767,19.202 C32.570,19.480 31.246,19.685 29.841,19.811 C29.039,20.981 28.225,22.031 27.411,22.926 C27.656,23.163 27.899,23.387 28.141,23.597 ZM21.372,11.028 C21.659,10.528 21.958,10.042 22.262,9.563 C21.345,9.679 20.462,9.830 19.634,10.016 C19.886,10.835 20.199,11.681 20.558,12.539 C20.817,12.034 21.085,11.530 21.372,11.028 ZM19.618,18.058 C20.443,18.239 21.340,18.381 22.291,18.488 C21.979,17.999 21.672,17.502 21.377,16.989 C21.089,16.488 20.821,15.984 20.561,15.480 C20.194,16.358 19.875,17.224 19.618,18.058 ZM21.215,14.010 C21.590,14.795 22.001,15.583 22.449,16.363 C22.898,17.144 23.377,17.902 23.873,18.630 C24.712,18.684 25.587,18.713 26.494,18.713 C27.403,18.713 28.291,18.678 29.154,18.615 C29.622,17.906 30.087,17.153 30.543,16.357 C30.997,15.564 31.410,14.771 31.788,13.987 C31.412,13.223 30.996,12.441 30.539,11.645 C30.089,10.862 29.619,10.113 29.139,9.399 C28.275,9.333 27.391,9.296 26.494,9.296 C25.605,9.296 24.720,9.333 23.853,9.399 C23.365,10.119 22.893,10.871 22.445,11.652 C22.001,12.428 21.591,13.219 21.215,14.010 ZM31.612,11.020 C31.906,11.532 32.179,12.038 32.441,12.539 C32.808,11.674 33.123,10.830 33.373,10.025 C32.538,9.833 31.650,9.680 30.727,9.563 C31.028,10.037 31.324,10.520 31.612,11.020 ZM31.616,16.980 C31.323,17.493 31.025,17.983 30.725,18.463 C31.682,18.347 32.591,18.193 33.432,18.000 C33.173,17.183 32.843,16.321 32.454,15.429 C32.188,15.945 31.912,16.463 31.616,16.980 ZM26.545,22.029 C27.112,21.402 27.680,20.692 28.246,19.917 C27.669,19.943 27.087,19.962 26.494,19.962 C25.917,19.962 25.357,19.947 24.804,19.925 C25.375,20.682 25.959,21.390 26.545,22.029 ZM19.844,25.570 C20.044,25.686 20.302,25.745 20.610,25.745 C21.802,25.745 23.491,24.885 25.127,23.444 C25.310,23.283 25.494,23.107 25.678,22.928 C24.829,22.011 23.992,20.965 23.191,19.828 C21.777,19.713 20.461,19.525 19.280,19.261 C19.198,19.593 19.127,19.917 19.067,20.232 C18.494,23.275 19.044,25.105 19.844,25.570 ZM17.429,10.634 C14.526,11.653 13.227,13.048 13.227,13.978 C13.227,14.947 14.625,16.470 17.694,17.527 C17.923,17.606 18.166,17.679 18.412,17.750 C18.779,16.543 19.264,15.282 19.847,14.007 C19.274,12.753 18.793,11.510 18.430,10.318 C18.083,10.417 17.747,10.522 17.429,10.634 ZM25.204,4.715 C23.498,3.189 21.766,2.278 20.568,2.278 C20.271,2.278 20.020,2.336 19.825,2.450 C19.051,2.901 18.494,4.801 19.097,7.906 C19.154,8.201 19.223,8.503 19.298,8.809 C20.502,8.533 21.807,8.331 23.172,8.204 C23.964,7.077 24.793,6.037 25.637,5.124 C25.492,4.986 25.347,4.843 25.204,4.715 ZM26.508,6.014 C25.926,6.646 25.351,7.345 24.790,8.091 C25.353,8.065 25.920,8.047 26.494,8.047 C27.073,8.047 27.645,8.066 28.213,8.093 C27.649,7.337 27.079,6.637 26.508,6.014 ZM33.100,2.413 C32.913,2.305 32.676,2.250 32.394,2.250 C31.279,2.250 29.653,3.092 28.044,4.502 C27.821,4.697 27.598,4.906 27.376,5.122 C28.202,6.019 29.027,7.062 29.826,8.207 C31.190,8.336 32.498,8.540 33.703,8.820 C33.750,8.625 33.800,8.428 33.839,8.239 C34.516,4.925 33.931,2.896 33.100,2.413 ZM35.439,10.610 C35.160,10.513 34.870,10.423 34.573,10.336 C34.217,11.496 33.738,12.725 33.159,13.983 C33.769,15.275 34.267,16.518 34.632,17.681 C34.795,17.632 34.964,17.586 35.121,17.534 C38.309,16.470 39.761,14.945 39.761,13.978 C39.761,13.078 38.409,11.640 35.439,10.610 ZM26.494,11.368 C27.925,11.368 29.085,12.537 29.085,13.978 C29.085,15.420 27.925,16.588 26.494,16.588 C25.063,16.588 23.903,15.420 23.903,13.978 C23.903,12.537 25.063,11.368 26.494,11.368 ZM17.056,33.382 C17.474,33.732 17.683,34.193 17.683,34.762 C17.683,35.725 17.191,36.403 16.206,36.796 L18.869,39.855 L17.693,39.855 L15.292,37.042 L13.807,37.042 L13.807,39.855 L12.906,39.855 L12.906,32.859 L14.973,32.859 C15.944,32.859 16.639,33.034 17.056,33.382 ZM13.807,36.332 L14.866,36.332 C15.535,36.332 16.013,36.202 16.303,35.942 C16.595,35.682 16.740,35.302 16.740,34.804 C16.740,33.996 16.170,33.592 15.030,33.592 L13.807,33.592 L13.807,36.332 ZM20.216,35.219 C20.697,34.713 21.333,34.460 22.127,34.460 C22.851,34.460 23.411,34.668 23.810,35.082 C24.207,35.497 24.407,36.088 24.407,36.857 L24.407,37.306 L20.366,37.306 C20.366,37.938 20.544,38.424 20.901,38.762 C21.258,39.101 21.750,39.271 22.379,39.271 C23.005,39.271 23.631,39.062 24.257,38.643 L24.296,38.643 L24.296,39.531 C23.518,39.828 22.874,39.977 22.365,39.977 C21.456,39.977 20.749,39.740 20.248,39.268 C19.746,38.796 19.496,38.128 19.496,37.265 C19.496,36.407 19.735,35.726 20.216,35.219 ZM23.575,36.688 C23.548,35.645 23.051,35.124 22.078,35.124 C21.589,35.124 21.192,35.263 20.889,35.542 C20.585,35.820 20.412,36.203 20.366,36.688 L23.575,36.688 ZM26.216,36.979 C26.695,36.671 27.694,36.488 29.214,36.428 L29.214,36.271 C29.214,35.905 29.101,35.636 28.875,35.461 C28.649,35.286 28.253,35.199 27.685,35.199 C27.185,35.199 26.629,35.322 26.016,35.570 L25.977,35.570 L25.977,34.720 C26.580,34.562 27.161,34.483 27.719,34.483 C28.529,34.483 29.121,34.628 29.497,34.917 C29.874,35.208 30.061,35.656 30.061,36.266 L30.061,39.855 L29.214,39.855 L29.214,39.271 C28.760,39.586 28.385,39.787 28.091,39.872 C27.797,39.957 27.499,39.999 27.196,39.999 C26.709,39.999 26.304,39.845 25.981,39.535 C25.659,39.226 25.498,38.832 25.498,38.356 C25.498,37.746 25.737,37.288 26.216,36.979 ZM27.568,39.247 C28.108,39.247 28.656,39.033 29.214,38.606 L29.214,37.083 C28.011,37.136 27.237,37.264 26.894,37.466 C26.549,37.670 26.379,37.948 26.379,38.305 C26.379,38.933 26.775,39.247 27.568,39.247 ZM32.280,35.217 C32.760,34.725 33.409,34.479 34.224,34.479 C34.764,34.479 35.332,34.623 35.933,34.910 L35.933,35.820 L35.894,35.820 C35.292,35.396 34.728,35.185 34.205,35.185 C33.648,35.185 33.213,35.363 32.904,35.719 C32.594,36.075 32.439,36.582 32.439,37.242 C32.439,37.901 32.593,38.404 32.901,38.751 C33.209,39.097 33.644,39.271 34.205,39.271 C34.744,39.271 35.307,39.062 35.894,38.643 L35.933,38.643 L35.933,39.535 C35.278,39.829 34.707,39.977 34.220,39.977 C33.378,39.977 32.724,39.739 32.258,39.266 C31.791,38.792 31.558,38.118 31.558,37.242 C31.558,36.384 31.799,35.709 32.280,35.217 ZM37.319,33.100 L38.166,33.100 L38.166,34.608 L40.082,34.608 L40.082,35.277 L38.166,35.277 L38.166,37.706 C38.166,38.256 38.205,38.613 38.284,38.776 C38.364,38.939 38.484,39.058 38.645,39.133 C38.806,39.209 39.013,39.247 39.264,39.247 C39.503,39.247 39.766,39.192 40.053,39.080 L40.082,39.080 L40.082,39.823 C39.699,39.913 39.340,39.957 39.008,39.957 C37.878,39.957 37.314,39.362 37.314,38.170 L37.314,35.277 L36.690,35.277 L36.690,34.608 L37.319,34.608 L37.319,33.100 Z" class="cls-2"/>
  </g>
</svg>
