<?xml version="1.0" encoding="UTF-8" standalone="no"?>
<svg width="814px" height="212px" viewBox="0 0 814 212" version="1.1" xmlns="http://www.w3.org/2000/svg" xmlns:xlink="http://www.w3.org/1999/xlink" xmlns:sketch="http://www.bohemiancoding.com/sketch/ns">
    <!-- Generator: Sketch 3.2.2 (9983) - http://www.bohemiancoding.com/sketch -->
    <title>Android</title>
    <desc>Created with Sketch.</desc>
    <defs></defs>
    <g id="Page-1" stroke="none" stroke-width="1" fill="none" fill-rule="evenodd" sketch:type="MSPage">
        <g id="platforms_logos" sketch:type="MSLayerGroup" fill="#A4C639">
            <g id="android_logo" sketch:type="MSShapeGroup">
                <path d="M30.0011915,65 C30.1410506,44.7522804 42.5814443,27.1968133 60.7761179,18.3717906 L60.7761179,18.3717906 L52.0924982,2.71780433 C51.6021703,1.83388876 51.9220488,0.719231054 52.8070289,0.229044256 C53.6899138,-0.259981998 54.8083234,0.0599369099 55.2978353,0.942381503 L64.133292,16.8700848 C71.2729383,13.9375968 79.1801138,12.3077127 87.5,12.3077127 C96.0198088,12.3077127 104.106834,14.0168685 111.380059,17.0837351 L120.334033,0.942381503 C120.823545,0.0599369099 121.941954,-0.259981998 122.824839,0.229044256 C123.709819,0.719231054 124.029698,1.83388876 123.53937,2.71780433 L114.720528,18.6155563 L114.720528,18.6155563 C132.644573,27.5174306 144.860226,44.9370442 144.998809,65 L30.0011736,65 L30.0011915,65 Z M30,70 L30,153.11006 C30,160.780965 36.2233772,167 43.900302,167 L131.099698,167 C138.776325,167 145,160.781262 145,153.11006 L145,70 L30,70 Z M119,40 C119,37.2385763 116.761424,35 114,35 C111.238576,35 109,37.2385763 109,40 C109,42.7614237 111.238576,45 114,45 C116.761424,45 119,42.7614237 119,40 Z M66,40 C66,37.2385763 63.7614237,35 61,35 C58.2385763,35 56,37.2385763 56,40 C56,42.7614237 58.2385763,45 61,45 C63.7614237,45 66,42.7614237 66,40 Z" id="Oval"></path>
                <path d="M162,68 C169.180856,68 175,73.7354994 175,80.8160075 L175,134.183992 C175,141.262927 169.180697,147 162,147 C154.819144,147 149,141.264501 149,134.183992 L149,80.8160075 C149,73.7370728 154.819303,68 162,68 Z" id="c"></path>
                <path d="M65,129 C72.1808561,129 78,134.735499 78,141.816008 L78,195.183992 C78,202.262927 72.1806973,208 65,208 C57.8191439,208 52,202.264501 52,195.183992 L52,141.816008 C52,134.737073 57.8193027,129 65,129 Z" id="c"></path>
                <path d="M13,68 C20.1808561,68 26,73.7354994 26,80.8160075 L26,134.183992 C26,141.262927 20.1806973,147 13,147 C5.81914395,147 0,141.264501 0,134.183992 L0,80.8160075 C0,73.7370728 5.81930265,68 13,68 Z" id="c"></path>
                <path d="M111,129 C118.180856,129 124,134.735499 124,141.816008 L124,195.183992 C124,202.262927 118.180697,208 111,208 C103.819144,208 98,202.264501 98,195.183992 L98,141.816008 C98,134.737073 103.819303,129 111,129 Z" id="c"></path>
            </g>
        </g>
    </g>
</svg>