<?xml version="1.0" encoding="UTF-8" standalone="no"?>
<svg width="814px" height="212px" viewBox="0 0 814 212" version="1.1" xmlns="http://www.w3.org/2000/svg" xmlns:xlink="http://www.w3.org/1999/xlink" xmlns:sketch="http://www.bohemiancoding.com/sketch/ns">
    <!-- Generator: Sketch 3.2.2 (9983) - http://www.bohemiancoding.com/sketch -->
    <title>iOS</title>
    <desc>Created with Sketch.</desc>
    <defs></defs>
    <g id="Page-1" stroke="none" stroke-width="1" fill="none" fill-rule="evenodd" sketch:type="MSPage">
        <g id="platforms_logos" sketch:type="MSLayerGroup" fill="#9B9B9B">
            <g id="apple_logo" sketch:type="MSShapeGroup">
                <path d="M135.837138,106.070945 C136.11784,136.285205 162.35549,146.33975 162.646179,146.468093 C162.424328,147.177184 158.453834,160.796791 148.822923,174.864884 C140.49744,187.027451 131.856656,199.145455 118.244908,199.396435 C104.869991,199.642781 100.569217,191.468806 85.2778906,191.468806 C69.9912013,191.468806 65.2128403,199.145455 52.5519847,199.642781 C39.413186,200.13975 29.4081247,186.490553 21.0134464,174.372549 C3.8599256,149.58467 -9.24891247,104.327986 8.35294748,73.7789661 C17.0971663,58.6081996 32.7237659,49.001426 49.6850394,48.7550802 C62.5870066,48.5090909 74.7649256,57.431016 82.6520569,57.431016 C90.5341947,57.431016 105.332954,46.7016043 120.890359,48.2773619 C127.403225,48.5483066 145.684906,50.9069519 157.424116,68.0819964 C156.478217,68.6680927 135.610293,80.8106952 135.837138,106.070945 M110.70054,31.8780749 C117.676013,23.4385027 122.370912,11.6898396 121.090096,0 C111.035457,0.403921569 98.8771554,6.6969697 91.6652079,15.1319073 C85.201919,22.601426 79.5415033,34.5568627 81.0687812,46.0153298 C92.2758337,46.8819964 103.724711,40.3229947 110.70054,31.8780749" id="Shape"></path>
            </g>
        </g>
    </g>
</svg>