<svg xmlns="http://www.w3.org/2000/svg" xmlns:xlink="http://www.w3.org/1999/xlink" preserveAspectRatio="xMidYMid" width="21" height="21" viewBox="0 0 21 21">
  <defs>
    <style>
      .cls-1 {
        fill: #666;
        fill-rule: evenodd;
      }
    </style>
  </defs>
  <path d="M10.500,21.000 C4.701,21.000 -0.000,16.299 -0.000,10.500 C-0.000,4.701 4.701,-0.000 10.500,-0.000 C16.299,-0.000 21.000,4.701 21.000,10.500 C21.000,16.299 16.299,21.000 10.500,21.000 ZM10.500,1.725 C5.661,1.725 1.725,5.661 1.725,10.500 C1.725,15.339 5.661,19.276 10.500,19.276 C15.339,19.276 19.275,15.339 19.275,10.500 C19.275,5.661 15.339,1.725 10.500,1.725 ZM16.987,12.551 C16.986,12.559 16.984,12.567 16.983,12.575 C16.980,12.591 16.977,12.607 16.973,12.622 C16.971,12.631 16.967,12.640 16.964,12.649 C16.960,12.663 16.955,12.676 16.950,12.690 C16.946,12.699 16.942,12.708 16.938,12.717 C16.932,12.730 16.926,12.742 16.919,12.754 C16.913,12.763 16.908,12.771 16.903,12.780 C16.895,12.791 16.888,12.803 16.879,12.814 C16.873,12.822 16.867,12.830 16.860,12.838 C16.851,12.848 16.842,12.858 16.832,12.868 C16.825,12.875 16.818,12.883 16.810,12.890 C16.800,12.899 16.789,12.908 16.778,12.916 C16.770,12.923 16.762,12.929 16.753,12.936 C16.750,12.938 16.747,12.940 16.744,12.942 L10.810,16.899 C10.716,16.961 10.608,16.993 10.500,16.993 C10.392,16.993 10.284,16.961 10.191,16.899 L4.256,12.942 C4.253,12.940 4.250,12.938 4.247,12.936 C4.238,12.929 4.230,12.923 4.222,12.916 C4.211,12.908 4.200,12.899 4.190,12.890 C4.182,12.883 4.175,12.875 4.168,12.868 C4.158,12.858 4.149,12.848 4.140,12.838 C4.134,12.830 4.127,12.822 4.121,12.814 C4.113,12.803 4.105,12.791 4.097,12.780 C4.092,12.771 4.087,12.763 4.081,12.754 C4.075,12.742 4.068,12.730 4.062,12.717 C4.058,12.708 4.054,12.699 4.050,12.690 C4.045,12.676 4.040,12.663 4.036,12.649 C4.033,12.640 4.030,12.631 4.027,12.622 C4.023,12.607 4.020,12.591 4.017,12.575 C4.016,12.567 4.014,12.559 4.013,12.551 C4.010,12.527 4.008,12.503 4.008,12.478 L4.008,8.522 C4.008,8.497 4.010,8.473 4.013,8.449 C4.014,8.441 4.016,8.433 4.017,8.425 C4.020,8.409 4.023,8.394 4.027,8.378 C4.030,8.369 4.033,8.360 4.036,8.351 C4.040,8.338 4.045,8.324 4.050,8.311 C4.054,8.301 4.058,8.292 4.062,8.283 C4.068,8.271 4.075,8.258 4.081,8.246 C4.087,8.237 4.092,8.229 4.097,8.220 C4.105,8.209 4.113,8.197 4.121,8.187 C4.127,8.178 4.134,8.170 4.140,8.162 C4.149,8.152 4.158,8.142 4.168,8.132 C4.175,8.125 4.182,8.117 4.190,8.110 C4.200,8.101 4.211,8.092 4.222,8.084 C4.230,8.077 4.238,8.071 4.247,8.065 C4.250,8.063 4.253,8.060 4.256,8.058 L10.191,4.102 C10.378,3.977 10.622,3.977 10.810,4.102 L16.744,8.058 C16.747,8.060 16.750,8.063 16.753,8.065 C16.762,8.071 16.770,8.077 16.778,8.084 C16.789,8.092 16.800,8.101 16.810,8.110 C16.818,8.117 16.825,8.125 16.832,8.132 C16.842,8.142 16.851,8.152 16.860,8.162 C16.867,8.170 16.873,8.178 16.879,8.187 C16.888,8.197 16.895,8.209 16.903,8.220 C16.908,8.229 16.913,8.237 16.919,8.246 C16.926,8.258 16.932,8.271 16.938,8.283 C16.942,8.292 16.946,8.301 16.950,8.311 C16.955,8.324 16.960,8.338 16.964,8.351 C16.967,8.360 16.971,8.369 16.973,8.378 C16.977,8.394 16.980,8.409 16.983,8.425 C16.984,8.433 16.986,8.441 16.987,8.449 C16.990,8.473 16.992,8.497 16.992,8.522 L16.992,12.478 C16.992,12.503 16.990,12.527 16.987,12.551 ZM11.058,15.392 L15.430,12.478 L13.477,11.172 L11.058,12.789 L11.058,15.392 ZM9.942,15.392 L9.942,12.789 L7.523,11.172 L5.570,12.478 L9.942,15.392 ZM5.124,11.434 L6.520,10.500 L5.124,9.566 L5.124,11.434 ZM9.942,5.608 L5.570,8.523 L7.523,9.829 L9.942,8.211 L9.942,5.608 ZM10.500,9.180 L8.527,10.500 L10.500,11.820 L12.473,10.500 L10.500,9.180 ZM11.058,5.608 L11.058,8.211 L13.477,9.829 L15.430,8.523 L11.058,5.608 ZM15.876,9.566 L14.481,10.500 L15.876,11.434 L15.876,9.566 Z" class="cls-1"/>
</svg>
