<svg xmlns="http://www.w3.org/2000/svg" xmlns:xlink="http://www.w3.org/1999/xlink" preserveAspectRatio="xMidYMid" width="15.97" height="14.813" viewBox="0 0 15.97 14.813">
  <defs>
    <style>
      .cls-1 {
        fill: #666;
        fill-rule: evenodd;
      }
    </style>
  </defs>
  <path d="M15.092,14.828 L0.888,14.828 C0.400,14.828 0.003,14.432 0.003,13.946 L0.003,8.896 C0.003,8.409 0.400,8.014 0.888,8.014 C1.378,8.014 1.774,8.409 1.774,8.896 L1.774,13.064 L14.207,13.064 L14.207,8.896 C14.207,8.409 14.603,8.014 15.092,8.014 C15.581,8.014 15.978,8.409 15.978,8.896 L15.978,13.946 C15.978,14.432 15.581,14.828 15.092,14.828 ZM8.342,10.942 C8.260,11.054 8.130,11.120 7.991,11.120 C7.852,11.120 7.721,11.054 7.639,10.942 L4.737,6.964 C4.641,6.833 4.627,6.659 4.702,6.514 C4.775,6.370 4.925,6.279 5.088,6.278 L6.977,6.278 L6.977,1.004 C6.977,0.447 7.431,-0.005 7.991,-0.005 C8.550,-0.005 9.004,0.447 9.004,1.004 L9.004,6.278 L10.893,6.278 C11.056,6.278 11.206,6.370 11.280,6.514 C11.354,6.659 11.340,6.833 11.244,6.964 L8.342,10.942 Z" class="cls-1"/>
</svg>
