<svg xmlns="http://www.w3.org/2000/svg" xmlns:xlink="http://www.w3.org/1999/xlink" preserveAspectRatio="xMidYMid" width="99.969" height="21.781" viewBox="0 0 99.969 21.781">
  <defs>
    <style>
      .cls-1 {
        fill: #ff1a33;
        fill-rule: evenodd;
      }
    </style>
  </defs>
  <path d="M97.513,18.544 L95.090,18.544 L97.554,7.002 L99.969,7.002 L97.513,18.544 ZM91.232,16.363 C90.862,17.066 90.303,17.639 89.554,18.080 C88.804,18.520 87.857,18.741 86.713,18.741 C85.343,18.741 84.294,18.412 83.567,17.753 C82.839,17.094 82.475,16.249 82.475,15.214 C82.475,14.998 82.494,14.765 82.531,14.513 C82.552,14.345 82.646,13.868 82.813,13.081 L84.112,7.002 L86.528,7.002 L85.196,13.270 L84.867,14.813 C84.846,14.943 84.834,15.068 84.834,15.183 C84.834,15.639 85.004,16.016 85.344,16.312 C85.683,16.609 86.177,16.757 86.824,16.757 C87.408,16.757 87.889,16.650 88.270,16.434 C88.650,16.218 88.943,15.899 89.153,15.474 C89.361,15.049 89.572,14.327 89.786,13.309 L91.133,7.002 L93.550,7.002 L92.210,13.317 C91.927,14.644 91.601,15.661 91.232,16.363 ZM75.378,18.477 L73.943,18.477 L75.061,13.244 C75.172,12.736 75.227,12.360 75.227,12.116 C75.227,11.841 75.132,11.619 74.939,11.447 C74.745,11.276 74.467,11.191 74.101,11.191 C73.367,11.191 72.714,11.451 72.140,11.969 C71.567,12.487 71.146,13.376 70.875,14.636 L70.059,18.477 L68.625,18.477 L70.385,10.219 L71.685,10.219 L71.376,11.658 C71.941,11.093 72.469,10.680 72.961,10.421 C73.452,10.162 73.954,10.032 74.467,10.032 C75.149,10.032 75.683,10.214 76.072,10.577 C76.460,10.939 76.655,11.425 76.655,12.031 C76.655,12.337 76.585,12.819 76.448,13.477 L75.378,18.477 ZM61.104,14.699 C61.083,14.859 61.071,15.005 61.071,15.134 C61.071,15.906 61.253,16.495 61.616,16.902 C61.976,17.310 62.421,17.513 62.942,17.513 C63.434,17.513 63.918,17.356 64.393,17.038 C64.869,16.723 65.239,16.267 65.503,15.670 L66.898,15.810 C66.697,16.489 66.236,17.134 65.515,17.746 C64.793,18.359 63.934,18.664 62.934,18.664 C62.311,18.664 61.740,18.523 61.219,18.240 C60.698,17.957 60.301,17.547 60.030,17.007 C59.758,16.468 59.621,15.854 59.621,15.165 C59.621,14.263 59.834,13.388 60.260,12.540 C60.685,11.692 61.236,11.063 61.913,10.651 C62.588,10.239 63.321,10.032 64.108,10.032 C65.112,10.032 65.914,10.339 66.514,10.950 C67.113,11.562 67.414,12.396 67.414,13.454 C67.414,13.859 67.376,14.273 67.302,14.699 L61.104,14.699 ZM65.527,11.692 C65.167,11.317 64.705,11.129 64.139,11.129 C63.527,11.129 62.968,11.337 62.462,11.752 C61.958,12.166 61.582,12.790 61.333,13.625 L66.058,13.625 C66.063,13.480 66.065,13.376 66.065,13.314 C66.065,12.609 65.886,12.069 65.527,11.692 ZM56.100,11.557 C55.763,11.266 55.285,11.121 54.665,11.121 C54.170,11.121 53.784,11.233 53.508,11.456 C53.234,11.679 53.096,11.920 53.096,12.179 C53.096,12.438 53.215,12.667 53.453,12.863 C53.611,12.997 54.020,13.205 54.681,13.484 C55.780,13.952 56.473,14.320 56.758,14.590 C57.212,15.019 57.440,15.543 57.440,16.160 C57.440,16.569 57.311,16.972 57.055,17.365 C56.799,17.759 56.408,18.075 55.882,18.310 C55.356,18.546 54.737,18.664 54.023,18.664 C53.051,18.664 52.224,18.428 51.542,17.956 C50.861,17.484 50.538,16.717 50.576,15.655 L52.011,15.569 C52.011,15.974 52.073,16.319 52.201,16.603 C52.327,16.888 52.560,17.122 52.902,17.304 C53.242,17.484 53.640,17.576 54.094,17.576 C54.729,17.576 55.205,17.451 55.521,17.202 C55.838,16.953 55.997,16.661 55.997,16.323 C55.997,16.080 55.901,15.849 55.712,15.632 C55.517,15.413 55.040,15.145 54.280,14.826 C53.523,14.507 53.037,14.283 52.827,14.155 C52.472,13.942 52.205,13.690 52.025,13.403 C51.847,13.115 51.756,12.785 51.756,12.412 C51.756,11.758 52.021,11.199 52.549,10.733 C53.078,10.265 53.817,10.032 54.769,10.032 C55.825,10.032 56.630,10.272 57.182,10.752 C57.734,11.232 58.021,11.862 58.043,12.646 L56.639,12.739 C56.618,12.241 56.438,11.848 56.100,11.557 ZM47.647,18.477 L46.212,18.477 L47.330,13.244 C47.439,12.736 47.495,12.360 47.495,12.116 C47.495,11.841 47.400,11.619 47.207,11.447 C47.014,11.276 46.735,11.191 46.371,11.191 C45.635,11.191 44.982,11.451 44.409,11.969 C43.835,12.487 43.414,13.376 43.144,14.636 L42.328,18.477 L40.894,18.477 L42.653,10.219 L43.953,10.219 L43.644,11.658 C44.208,11.093 44.737,10.680 45.230,10.421 C45.720,10.162 46.222,10.032 46.735,10.032 C47.417,10.032 47.951,10.214 48.340,10.577 C48.728,10.939 48.923,11.425 48.923,12.031 C48.923,12.337 48.853,12.819 48.717,13.477 L47.647,18.477 ZM37.675,16.919 C37.154,17.434 36.594,17.833 35.997,18.112 C35.203,18.485 34.363,18.672 33.475,18.672 C32.545,18.672 31.698,18.454 30.935,18.019 C30.171,17.583 29.592,16.975 29.199,16.195 C28.805,15.415 28.608,14.584 28.608,13.703 C28.608,11.671 29.207,10.026 30.405,8.768 C31.601,7.512 33.052,6.884 34.759,6.884 C36.208,6.884 37.387,7.346 38.299,8.271 C39.210,9.196 39.667,10.437 39.667,11.992 C39.667,13.102 39.436,14.131 38.976,15.080 C38.632,15.790 38.200,16.402 37.675,16.919 ZM37.149,9.162 C36.501,8.488 35.703,8.151 34.751,8.151 C33.536,8.151 32.463,8.661 31.533,9.679 C30.603,10.697 30.138,12.065 30.138,13.781 C30.138,14.449 30.280,15.063 30.563,15.623 C30.845,16.184 31.266,16.621 31.826,16.937 C32.386,17.254 32.976,17.412 33.595,17.412 C34.191,17.412 34.759,17.273 35.299,16.995 C35.838,16.718 36.319,16.332 36.745,15.837 C37.171,15.343 37.507,14.733 37.752,14.010 C37.997,13.286 38.120,12.575 38.120,11.876 C38.120,10.740 37.797,9.836 37.149,9.162 ZM0.146,17.238 C-0.570,14.766 1.415,12.189 1.141,13.381 C0.973,14.124 0.927,14.974 1.136,15.696 C2.137,19.149 7.420,20.611 12.871,19.091 C18.321,17.570 22.029,13.600 21.029,10.147 C20.819,9.426 20.325,8.726 19.783,8.182 C18.911,7.307 21.982,8.476 22.697,10.948 C23.856,14.946 19.584,19.285 13.273,21.045 C6.962,22.807 1.305,21.237 0.146,17.238 ZM15.769,1.795 C16.699,-0.008 19.826,0.121 19.826,0.121 C16.407,3.653 21.400,11.216 13.952,14.775 C17.963,9.536 14.838,3.599 15.769,1.795 ZM12.451,14.158 C12.159,14.559 11.865,14.840 11.577,15.030 C9.525,16.603 6.536,16.321 2.961,15.406 C4.693,13.372 3.633,10.628 4.079,8.083 C4.504,5.666 7.020,3.560 9.834,2.750 C6.339,5.539 6.708,10.313 7.266,12.179 C7.582,13.235 8.173,13.863 8.837,14.226 C12.372,15.822 6.320,4.649 14.349,1.502 C11.550,5.499 14.194,11.769 12.451,14.158 Z" class="cls-1"/>
</svg>
